<svg xmlns="http://www.w3.org/2000/svg" viewBox="0 0 1600 1200" width="1600" height="1200" role="img">
<rect width="1600" height="1200" fill="#F5E9D7"/>
<circle cx="1309" cy="228" r="0.6" fill="#D4C5A8" opacity="0.2"/>
<circle cx="501" cy="457" r="0.8" fill="#D4C5A8" opacity="0.1"/>
<circle cx="1385" cy="1116" r="0.6" fill="#D4C5A8" opacity="0.25"/>
<circle cx="65" cy="61" r="0.6" fill="#D4C5A8" opacity="0.15"/>
<circle cx="476" cy="1034" r="0.6" fill="#D4C5A8" opacity="0.15"/>
<circle cx="1466" cy="1116" r="1.2" fill="#D4C5A8" opacity="0.15"/>
<circle cx="919" cy="569" r="0.6" fill="#D4C5A8" opacity="0.15"/>
<circle cx="1429" cy="865" r="1.0" fill="#D4C5A8" opacity="0.2"/>
<circle cx="318" cy="440" r="1.0" fill="#D4C5A8" opacity="0.1"/>
<circle cx="189" cy="778" r="0.6" fill="#D4C5A8" opacity="0.2"/>
<circle cx="704" cy="541" r="0.6" fill="#D4C5A8" opacity="0.25"/>
<circle cx="1098" cy="255" r="1.2" fill="#D4C5A8" opacity="0.1"/>
<circle cx="1130" cy="600" r="1.0" fill="#D4C5A8" opacity="0.15"/>
<circle cx="1442" cy="142" r="0.6" fill="#D4C5A8" opacity="0.15"/>
<circle cx="1583" cy="592" r="0.6" fill="#D4C5A8" opacity="0.15"/>
<circle cx="206" cy="778" r="1.0" fill="#D4C5A8" opacity="0.25"/>
<circle cx="1301" cy="747" r="0.8" fill="#D4C5A8" opacity="0.2"/>
<circle cx="727" cy="429" r="1.0" fill="#D4C5A8" opacity="0.1"/>
<circle cx="1247" cy="350" r="0.8" fill="#D4C5A8" opacity="0.15"/>
<circle cx="946" cy="777" r="1.0" fill="#D4C5A8" opacity="0.15"/>
<circle cx="1402" cy="664" r="0.6" fill="#D4C5A8" opacity="0.15"/>
<circle cx="65" cy="646" r="1.2" fill="#D4C5A8" opacity="0.2"/>
<circle cx="135" cy="432" r="1.0" fill="#D4C5A8" opacity="0.15"/>
<circle cx="1342" cy="1022" r="1.2" fill="#D4C5A8" opacity="0.25"/>
<circle cx="292" cy="542" r="0.8" fill="#D4C5A8" opacity="0.15"/>
<circle cx="1525" cy="1149" r="1.0" fill="#D4C5A8" opacity="0.25"/>
<circle cx="1195" cy="817" r="1.0" fill="#D4C5A8" opacity="0.15"/>
<circle cx="283" cy="1043" r="1.2" fill="#D4C5A8" opacity="0.1"/>
<circle cx="1547" cy="96" r="0.6" fill="#D4C5A8" opacity="0.15"/>
<circle cx="1285" cy="327" r="1.2" fill="#D4C5A8" opacity="0.1"/>
<circle cx="788" cy="781" r="1.2" fill="#D4C5A8" opacity="0.2"/>
<circle cx="1133" cy="23" r="0.6" fill="#D4C5A8" opacity="0.2"/>
<circle cx="1574" cy="696" r="0.6" fill="#D4C5A8" opacity="0.2"/>
<circle cx="890" cy="323" r="1.2" fill="#D4C5A8" opacity="0.1"/>
<circle cx="1478" cy="539" r="0.8" fill="#D4C5A8" opacity="0.1"/>
<circle cx="1280" cy="611" r="0.8" fill="#D4C5A8" opacity="0.15"/>
<circle cx="765" cy="330" r="0.6" fill="#D4C5A8" opacity="0.2"/>
<circle cx="1000" cy="39" r="0.6" fill="#D4C5A8" opacity="0.2"/>
<circle cx="629" cy="490" r="0.6" fill="#D4C5A8" opacity="0.15"/>
<circle cx="1161" cy="161" r="0.6" fill="#D4C5A8" opacity="0.25"/>
<circle cx="141" cy="1090" r="0.8" fill="#D4C5A8" opacity="0.15"/>
<circle cx="1351" cy="973" r="0.8" fill="#D4C5A8" opacity="0.2"/>
<circle cx="1080" cy="866" r="0.8" fill="#D4C5A8" opacity="0.15"/>
<circle cx="1460" cy="638" r="1.2" fill="#D4C5A8" opacity="0.2"/>
<circle cx="897" cy="1059" r="1.2" fill="#D4C5A8" opacity="0.1"/>
<circle cx="507" cy="460" r="0.6" fill="#D4C5A8" opacity="0.2"/>
<circle cx="43" cy="1134" r="0.8" fill="#D4C5A8" opacity="0.15"/>
<circle cx="14" cy="145" r="0.6" fill="#D4C5A8" opacity="0.15"/>
<circle cx="138" cy="64" r="1.0" fill="#D4C5A8" opacity="0.1"/>
<circle cx="1052" cy="487" r="1.0" fill="#D4C5A8" opacity="0.25"/>
<circle cx="438" cy="1104" r="0.8" fill="#D4C5A8" opacity="0.25"/>
<circle cx="497" cy="968" r="1.2" fill="#D4C5A8" opacity="0.15"/>
<circle cx="193" cy="198" r="1.2" fill="#D4C5A8" opacity="0.2"/>
<circle cx="867" cy="841" r="1.2" fill="#D4C5A8" opacity="0.1"/>
<circle cx="1379" cy="201" r="0.6" fill="#D4C5A8" opacity="0.25"/>
<circle cx="1491" cy="694" r="0.6" fill="#D4C5A8" opacity="0.15"/>
<circle cx="392" cy="389" r="1.2" fill="#D4C5A8" opacity="0.15"/>
<circle cx="864" cy="375" r="1.0" fill="#D4C5A8" opacity="0.25"/>
<circle cx="511" cy="154" r="1.2" fill="#D4C5A8" opacity="0.1"/>
<circle cx="103" cy="1107" r="0.6" fill="#D4C5A8" opacity="0.1"/>
<circle cx="1543" cy="484" r="0.8" fill="#D4C5A8" opacity="0.25"/>
<circle cx="994" cy="985" r="0.8" fill="#D4C5A8" opacity="0.25"/>
<circle cx="120" cy="337" r="1.2" fill="#D4C5A8" opacity="0.1"/>
<circle cx="799" cy="543" r="1.2" fill="#D4C5A8" opacity="0.2"/>
<circle cx="866" cy="1138" r="1.2" fill="#D4C5A8" opacity="0.15"/>
<circle cx="388" cy="607" r="0.8" fill="#D4C5A8" opacity="0.1"/>
<circle cx="1186" cy="1110" r="0.6" fill="#D4C5A8" opacity="0.2"/>
<circle cx="117" cy="102" r="1.2" fill="#D4C5A8" opacity="0.15"/>
<circle cx="116" cy="1040" r="0.6" fill="#D4C5A8" opacity="0.15"/>
<circle cx="140" cy="139" r="0.8" fill="#D4C5A8" opacity="0.25"/>
<circle cx="245" cy="1166" r="0.8" fill="#D4C5A8" opacity="0.1"/>
<circle cx="1268" cy="167" r="1.2" fill="#D4C5A8" opacity="0.2"/>
<circle cx="534" cy="418" r="1.0" fill="#D4C5A8" opacity="0.15"/>
<circle cx="543" cy="810" r="0.8" fill="#D4C5A8" opacity="0.2"/>
<circle cx="936" cy="647" r="0.6" fill="#D4C5A8" opacity="0.1"/>
<circle cx="938" cy="1153" r="0.6" fill="#D4C5A8" opacity="0.1"/>
<circle cx="1101" cy="436" r="1.0" fill="#D4C5A8" opacity="0.15"/>
<circle cx="714" cy="140" r="0.8" fill="#D4C5A8" opacity="0.2"/>
<circle cx="583" cy="323" r="1.2" fill="#D4C5A8" opacity="0.2"/>
<circle cx="1252" cy="1083" r="0.6" fill="#D4C5A8" opacity="0.2"/>
<circle cx="1358" cy="212" r="0.8" fill="#D4C5A8" opacity="0.2"/>
<circle cx="236" cy="219" r="0.8" fill="#D4C5A8" opacity="0.2"/>
<circle cx="577" cy="431" r="1.0" fill="#D4C5A8" opacity="0.15"/>
<circle cx="1407" cy="540" r="1.2" fill="#D4C5A8" opacity="0.2"/>
<circle cx="104" cy="189" r="1.2" fill="#D4C5A8" opacity="0.2"/>
<circle cx="90" cy="7" r="1.0" fill="#D4C5A8" opacity="0.15"/>
<circle cx="1304" cy="536" r="0.8" fill="#D4C5A8" opacity="0.25"/>
<circle cx="1129" cy="875" r="0.6" fill="#D4C5A8" opacity="0.1"/>
<circle cx="154" cy="305" r="0.6" fill="#D4C5A8" opacity="0.2"/>
<circle cx="1192" cy="1131" r="0.8" fill="#D4C5A8" opacity="0.25"/>
<circle cx="261" cy="85" r="1.0" fill="#D4C5A8" opacity="0.2"/>
<circle cx="81" cy="732" r="0.8" fill="#D4C5A8" opacity="0.15"/>
<circle cx="1365" cy="210" r="1.0" fill="#D4C5A8" opacity="0.25"/>
<circle cx="1271" cy="316" r="0.8" fill="#D4C5A8" opacity="0.15"/>
<circle cx="362" cy="844" r="0.6" fill="#D4C5A8" opacity="0.15"/>
<circle cx="1508" cy="680" r="1.2" fill="#D4C5A8" opacity="0.15"/>
<circle cx="546" cy="326" r="0.6" fill="#D4C5A8" opacity="0.25"/>
<circle cx="79" cy="963" r="0.8" fill="#D4C5A8" opacity="0.15"/>
<circle cx="942" cy="716" r="1.0" fill="#D4C5A8" opacity="0.15"/>
<circle cx="456" cy="48" r="0.8" fill="#D4C5A8" opacity="0.25"/>
<circle cx="672" cy="570" r="0.6" fill="#D4C5A8" opacity="0.2"/>
<circle cx="719" cy="1043" r="1.2" fill="#D4C5A8" opacity="0.2"/>
<circle cx="56" cy="236" r="1.0" fill="#D4C5A8" opacity="0.15"/>
<circle cx="1189" cy="543" r="0.6" fill="#D4C5A8" opacity="0.1"/>
<circle cx="1221" cy="889" r="1.0" fill="#D4C5A8" opacity="0.2"/>
<circle cx="893" cy="1047" r="0.6" fill="#D4C5A8" opacity="0.25"/>
<circle cx="1180" cy="389" r="1.0" fill="#D4C5A8" opacity="0.1"/>
<circle cx="1451" cy="893" r="0.6" fill="#D4C5A8" opacity="0.15"/>
<circle cx="745" cy="883" r="0.6" fill="#D4C5A8" opacity="0.2"/>
<circle cx="1276" cy="642" r="0.6" fill="#D4C5A8" opacity="0.2"/>
<circle cx="1038" cy="633" r="1.2" fill="#D4C5A8" opacity="0.2"/>
<circle cx="824" cy="605" r="0.8" fill="#D4C5A8" opacity="0.15"/>
<circle cx="861" cy="776" r="0.8" fill="#D4C5A8" opacity="0.2"/>
<circle cx="831" cy="1122" r="0.6" fill="#D4C5A8" opacity="0.2"/>
<circle cx="587" cy="430" r="1.2" fill="#D4C5A8" opacity="0.2"/>
<circle cx="952" cy="904" r="1.2" fill="#D4C5A8" opacity="0.15"/>
<circle cx="1046" cy="969" r="0.8" fill="#D4C5A8" opacity="0.1"/>
<circle cx="581" cy="1055" r="1.0" fill="#D4C5A8" opacity="0.1"/>
<circle cx="1538" cy="481" r="1.0" fill="#D4C5A8" opacity="0.15"/>
<circle cx="407" cy="301" r="0.6" fill="#D4C5A8" opacity="0.1"/>
<circle cx="501" cy="973" r="0.6" fill="#D4C5A8" opacity="0.25"/>
<circle cx="848" cy="1178" r="0.8" fill="#D4C5A8" opacity="0.25"/>
<circle cx="1012" cy="818" r="0.8" fill="#D4C5A8" opacity="0.15"/>
<circle cx="1343" cy="11" r="0.6" fill="#D4C5A8" opacity="0.25"/>
<circle cx="448" cy="360" r="1.2" fill="#D4C5A8" opacity="0.1"/>
<circle cx="1141" cy="510" r="0.6" fill="#D4C5A8" opacity="0.25"/>
<circle cx="273" cy="951" r="1.0" fill="#D4C5A8" opacity="0.25"/>
<circle cx="1254" cy="1033" r="1.2" fill="#D4C5A8" opacity="0.25"/>
<circle cx="325" cy="972" r="1.2" fill="#D4C5A8" opacity="0.2"/>
<circle cx="1539" cy="506" r="1.0" fill="#D4C5A8" opacity="0.25"/>
<circle cx="1283" cy="489" r="1.0" fill="#D4C5A8" opacity="0.25"/>
<circle cx="158" cy="585" r="0.8" fill="#D4C5A8" opacity="0.2"/>
<circle cx="687" cy="654" r="0.6" fill="#D4C5A8" opacity="0.15"/>
<circle cx="308" cy="473" r="1.2" fill="#D4C5A8" opacity="0.15"/>
<circle cx="1446" cy="438" r="0.6" fill="#D4C5A8" opacity="0.25"/>
<circle cx="834" cy="677" r="1.2" fill="#D4C5A8" opacity="0.25"/>
<circle cx="127" cy="423" r="1.2" fill="#D4C5A8" opacity="0.25"/>
<circle cx="1576" cy="1196" r="0.6" fill="#D4C5A8" opacity="0.25"/>
<circle cx="976" cy="12" r="1.0" fill="#D4C5A8" opacity="0.2"/>
<circle cx="1543" cy="798" r="1.2" fill="#D4C5A8" opacity="0.15"/>
<circle cx="999" cy="449" r="1.0" fill="#D4C5A8" opacity="0.25"/>
<circle cx="994" cy="59" r="1.2" fill="#D4C5A8" opacity="0.2"/>
<circle cx="1369" cy="828" r="0.8" fill="#D4C5A8" opacity="0.25"/>
<circle cx="261" cy="1093" r="0.6" fill="#D4C5A8" opacity="0.25"/>
<circle cx="1212" cy="1155" r="0.6" fill="#D4C5A8" opacity="0.1"/>
<circle cx="1316" cy="877" r="0.8" fill="#D4C5A8" opacity="0.25"/>
<circle cx="372" cy="102" r="1.0" fill="#D4C5A8" opacity="0.25"/>
<circle cx="670" cy="433" r="1.2" fill="#D4C5A8" opacity="0.2"/>
<circle cx="691" cy="776" r="1.0" fill="#D4C5A8" opacity="0.25"/>
<circle cx="516" cy="167" r="1.2" fill="#D4C5A8" opacity="0.1"/>
<circle cx="1534" cy="1104" r="0.6" fill="#D4C5A8" opacity="0.2"/>
<circle cx="459" cy="140" r="0.6" fill="#D4C5A8" opacity="0.1"/>
<circle cx="506" cy="408" r="0.6" fill="#D4C5A8" opacity="0.15"/>
<circle cx="488" cy="258" r="1.2" fill="#D4C5A8" opacity="0.1"/>
<circle cx="1155" cy="446" r="1.2" fill="#D4C5A8" opacity="0.2"/>
<circle cx="1570" cy="755" r="0.8" fill="#D4C5A8" opacity="0.1"/>
<circle cx="1592" cy="335" r="1.0" fill="#D4C5A8" opacity="0.1"/>
<circle cx="1185" cy="52" r="1.0" fill="#D4C5A8" opacity="0.25"/>
<circle cx="812" cy="406" r="0.6" fill="#D4C5A8" opacity="0.15"/>
<circle cx="208" cy="617" r="0.6" fill="#D4C5A8" opacity="0.1"/>
<circle cx="711" cy="1091" r="1.2" fill="#D4C5A8" opacity="0.2"/>
<circle cx="141" cy="1036" r="1.0" fill="#D4C5A8" opacity="0.1"/>
<circle cx="860" cy="1003" r="0.6" fill="#D4C5A8" opacity="0.25"/>
<circle cx="741" cy="941" r="0.8" fill="#D4C5A8" opacity="0.25"/>
<circle cx="360" cy="1068" r="1.0" fill="#D4C5A8" opacity="0.25"/>
<circle cx="952" cy="892" r="1.0" fill="#D4C5A8" opacity="0.2"/>
<circle cx="502" cy="177" r="1.0" fill="#D4C5A8" opacity="0.25"/>
<circle cx="499" cy="951" r="1.2" fill="#D4C5A8" opacity="0.2"/>
<circle cx="58" cy="1012" r="1.0" fill="#D4C5A8" opacity="0.15"/>
<circle cx="998" cy="434" r="1.0" fill="#D4C5A8" opacity="0.2"/>
<circle cx="697" cy="572" r="1.0" fill="#D4C5A8" opacity="0.1"/>
<circle cx="1058" cy="391" r="0.6" fill="#D4C5A8" opacity="0.15"/>
<circle cx="1474" cy="832" r="1.2" fill="#D4C5A8" opacity="0.15"/>
<circle cx="1414" cy="975" r="1.2" fill="#D4C5A8" opacity="0.25"/>
<circle cx="35" cy="190" r="1.0" fill="#D4C5A8" opacity="0.15"/>
<circle cx="828" cy="498" r="1.0" fill="#D4C5A8" opacity="0.2"/>
<circle cx="969" cy="1133" r="1.0" fill="#D4C5A8" opacity="0.25"/>
<circle cx="1527" cy="1127" r="1.0" fill="#D4C5A8" opacity="0.2"/>
<circle cx="1439" cy="929" r="1.0" fill="#D4C5A8" opacity="0.2"/>
<circle cx="514" cy="472" r="0.6" fill="#D4C5A8" opacity="0.15"/>
<circle cx="646" cy="244" r="0.8" fill="#D4C5A8" opacity="0.15"/>
<circle cx="443" cy="991" r="1.0" fill="#D4C5A8" opacity="0.2"/>
<circle cx="205" cy="397" r="1.0" fill="#D4C5A8" opacity="0.15"/>
<circle cx="739" cy="367" r="1.0" fill="#D4C5A8" opacity="0.1"/>
<circle cx="1450" cy="1093" r="0.8" fill="#D4C5A8" opacity="0.2"/>
<circle cx="93" cy="111" r="1.0" fill="#D4C5A8" opacity="0.15"/>
<circle cx="1306" cy="1005" r="0.6" fill="#D4C5A8" opacity="0.1"/>
<circle cx="1175" cy="582" r="1.2" fill="#D4C5A8" opacity="0.25"/>
<circle cx="902" cy="697" r="0.8" fill="#D4C5A8" opacity="0.1"/>
<circle cx="517" cy="978" r="0.6" fill="#D4C5A8" opacity="0.1"/>
<circle cx="820" cy="1007" r="0.6" fill="#D4C5A8" opacity="0.1"/>
<circle cx="310" cy="305" r="1.0" fill="#D4C5A8" opacity="0.1"/>
<circle cx="508" cy="242" r="1.2" fill="#D4C5A8" opacity="0.15"/>
<circle cx="1588" cy="1070" r="1.2" fill="#D4C5A8" opacity="0.25"/>
<circle cx="906" cy="608" r="1.2" fill="#D4C5A8" opacity="0.2"/>
<circle cx="1164" cy="123" r="0.6" fill="#D4C5A8" opacity="0.15"/>
<circle cx="1281" cy="432" r="1.0" fill="#D4C5A8" opacity="0.1"/>
<circle cx="321" cy="491" r="0.8" fill="#D4C5A8" opacity="0.1"/>
<circle cx="320" cy="5" r="1.2" fill="#D4C5A8" opacity="0.25"/>
<circle cx="1411" cy="962" r="1.0" fill="#D4C5A8" opacity="0.1"/>
<circle cx="474" cy="590" r="1.0" fill="#D4C5A8" opacity="0.25"/>
<circle cx="145" cy="478" r="1.0" fill="#D4C5A8" opacity="0.15"/>
<circle cx="870" cy="235" r="0.8" fill="#D4C5A8" opacity="0.15"/>
<circle cx="544" cy="291" r="0.6" fill="#D4C5A8" opacity="0.1"/>
<circle cx="339" cy="629" r="1.0" fill="#D4C5A8" opacity="0.25"/>
<circle cx="254" cy="959" r="1.0" fill="#D4C5A8" opacity="0.25"/>
<circle cx="557" cy="1024" r="1.2" fill="#D4C5A8" opacity="0.25"/>
<circle cx="164" cy="81" r="1.2" fill="#D4C5A8" opacity="0.2"/>
<circle cx="1236" cy="512" r="0.6" fill="#D4C5A8" opacity="0.1"/>
<circle cx="468" cy="1178" r="0.6" fill="#D4C5A8" opacity="0.2"/>
<circle cx="1180" cy="82" r="0.8" fill="#D4C5A8" opacity="0.25"/>
<circle cx="1062" cy="905" r="1.0" fill="#D4C5A8" opacity="0.15"/>
<circle cx="1198" cy="892" r="1.2" fill="#D4C5A8" opacity="0.1"/>
<circle cx="962" cy="712" r="1.2" fill="#D4C5A8" opacity="0.2"/>
<circle cx="657" cy="214" r="0.8" fill="#D4C5A8" opacity="0.2"/>
<circle cx="843" cy="1014" r="1.0" fill="#D4C5A8" opacity="0.25"/>
<circle cx="1557" cy="1126" r="0.6" fill="#D4C5A8" opacity="0.25"/>
<circle cx="180" cy="644" r="1.0" fill="#D4C5A8" opacity="0.2"/>
<circle cx="237" cy="827" r="0.6" fill="#D4C5A8" opacity="0.25"/>
<circle cx="846" cy="111" r="0.8" fill="#D4C5A8" opacity="0.2"/>
<circle cx="1275" cy="1020" r="1.2" fill="#D4C5A8" opacity="0.1"/>
<circle cx="416" cy="546" r="0.8" fill="#D4C5A8" opacity="0.2"/>
<circle cx="897" cy="992" r="0.6" fill="#D4C5A8" opacity="0.1"/>
<circle cx="1290" cy="490" r="0.8" fill="#D4C5A8" opacity="0.2"/>
<circle cx="1128" cy="28" r="1.2" fill="#D4C5A8" opacity="0.1"/>
<circle cx="460" cy="232" r="1.2" fill="#D4C5A8" opacity="0.1"/>
<circle cx="1326" cy="315" r="1.2" fill="#D4C5A8" opacity="0.2"/>
<circle cx="1042" cy="559" r="1.2" fill="#D4C5A8" opacity="0.25"/>
<circle cx="967" cy="499" r="1.2" fill="#D4C5A8" opacity="0.15"/>
<circle cx="785" cy="390" r="0.8" fill="#D4C5A8" opacity="0.1"/>
<circle cx="565" cy="849" r="1.0" fill="#D4C5A8" opacity="0.2"/>
<circle cx="5" cy="579" r="1.0" fill="#D4C5A8" opacity="0.25"/>
<circle cx="304" cy="914" r="1.2" fill="#D4C5A8" opacity="0.2"/>
<circle cx="680" cy="1130" r="1.2" fill="#D4C5A8" opacity="0.25"/>
<circle cx="659" cy="386" r="0.8" fill="#D4C5A8" opacity="0.25"/>
<circle cx="478" cy="841" r="0.6" fill="#D4C5A8" opacity="0.2"/>
<circle cx="1525" cy="968" r="1.2" fill="#D4C5A8" opacity="0.25"/>
<circle cx="1359" cy="311" r="1.2" fill="#D4C5A8" opacity="0.1"/>
<circle cx="258" cy="1028" r="1.0" fill="#D4C5A8" opacity="0.1"/>
<circle cx="901" cy="204" r="1.2" fill="#D4C5A8" opacity="0.1"/>

<rect x="48" y="48" width="1504" height="1104"
      fill="none" stroke="#2B2422" stroke-width="1.5" opacity="0.7"/>
<rect x="52" y="52" width="1496" height="1096"
      fill="none" stroke="#2B2422" stroke-width="0.5" opacity="0.5"/>

<g>
  <line x1="770.0" y1="70" x2="720.0" y2="70"
        stroke="#C49A3D" stroke-width="1.5"/>
  <line x1="830.0" y1="70" x2="880.0" y2="70"
        stroke="#C49A3D" stroke-width="1.5"/>
  <text x="800.0" y="74" text-anchor="middle"
        font-family="Georgia, 'Times New Roman', serif"
        font-size="14" font-weight="700" letter-spacing="3"
        fill="#C49A3D">FIND US</text>
</g>

<!-- Mall outline -->
<rect x="240" y="320" width="1120" height="560" fill="none"
      stroke="#2B2422" stroke-width="2" rx="12"/>

<!-- Cinemark entrance (left) -->
<rect x="200" y="540" width="40" height="120" fill="#C49A3D" opacity="0.8"/>
<text x="120" y="610" text-anchor="middle"
      font-family="Georgia, serif" font-size="22" font-weight="700"
      fill="#2B2422">Cinemark</text>
<text x="120" y="640" text-anchor="middle"
      font-family="Georgia, serif" font-size="14" font-style="italic"
      fill="#2B2422" opacity="0.7">entrance</text>

<!-- Food court area (right side) -->
<rect x="1020" y="560" width="280" height="200" fill="#D4C5A8" opacity="0.5"
      stroke="#2B2422" stroke-width="1.5" rx="6"/>
<text x="1160" y="540" text-anchor="middle"
      font-family="Georgia, serif" font-size="16" font-weight="700"
      letter-spacing="2" fill="#2B2422">FOOD COURT</text>

<!-- Kingdom Deli location -->
<circle cx="1200" cy="640" r="24" fill="#A03423" opacity="0.9"/>
<text x="1200" y="648" text-anchor="middle"
      font-family="Georgia, serif" font-size="18" font-weight="900"
      fill="#F5E9D7">KD</text>
<text x="1200" y="710" text-anchor="middle"
      font-family="Georgia, serif" font-size="16" font-weight="700"
      fill="#A03423">Kingdom Deli</text>

<!-- Route arrow from entrance to KD -->
<path d="M 250 600 Q 600 600, 900 620 Q 1050 630, 1170 638"
      fill="none" stroke="#A03423" stroke-width="3"
      stroke-dasharray="8 6" opacity="0.8"/>
<polygon points="1170,632 1186,638 1170,644" fill="#A03423"/>

<!-- Walking icon / steps marker -->
<text x="600" y="588" text-anchor="middle"
      font-family="Georgia, serif" font-size="13" font-style="italic"
      letter-spacing="2" fill="#2B2422" opacity="0.6">~ 90 SECOND WALK ~</text>

<g transform="translate(800.0 600.0) rotate(-18)" opacity="0.18">
  <rect x="-510.0" y="-91.8" width="1020.0" height="183.6"
        fill="none" stroke="#A03423" stroke-width="6" rx="6"/>
  <rect x="-500.0" y="-81.8"
        width="1000.0" height="163.6"
        fill="none" stroke="#A03423" stroke-width="3.0" rx="3"/>
  <text x="0" y="35.342999999999996" text-anchor="middle"
        font-family="Georgia, 'Times New Roman', serif"
        font-size="100.98" font-weight="900" letter-spacing="12.1176"
        fill="#A03423">WAYFINDING DRAFT</text>
</g>

<text x="800.0" y="200" text-anchor="middle"
      font-family="Georgia, serif" font-size="42" font-weight="800"
      fill="#2B2422">Wayfinding Map</text>
<text x="800.0" y="240" text-anchor="middle"
      font-family="Georgia, serif" font-size="16" font-style="italic"
      fill="#2B2422" opacity="0.7">Cinemark entrance → food court → Kingdom Deli</text>

<g>
  <line x1="1518" y1="1146" x2="1568" y2="1146"
        stroke="#A03423" stroke-width="1.5"/>
  <text x="1568" y="1168" text-anchor="end"
        font-family="Georgia, 'Times New Roman', serif"
        font-size="18" font-weight="800" letter-spacing="2"
        fill="#A03423">KD</text>
</g>
</svg>
