<svg xmlns="http://www.w3.org/2000/svg" viewBox="0 0 2400 1600" width="2400" height="1600" role="img">
<rect width="2400" height="1600" fill="#F5E9D7"/>
<circle cx="456" cy="51" r="1.0" fill="#D4C5A8" opacity="0.15"/>
<circle cx="914" cy="285" r="0.6" fill="#D4C5A8" opacity="0.1"/>
<circle cx="1728" cy="65" r="0.6" fill="#D4C5A8" opacity="0.1"/>
<circle cx="895" cy="476" r="0.6" fill="#D4C5A8" opacity="0.15"/>
<circle cx="2232" cy="859" r="0.8" fill="#D4C5A8" opacity="0.25"/>
<circle cx="1139" cy="13" r="0.8" fill="#D4C5A8" opacity="0.25"/>
<circle cx="1393" cy="569" r="0.8" fill="#D4C5A8" opacity="0.15"/>
<circle cx="1378" cy="209" r="0.6" fill="#D4C5A8" opacity="0.25"/>
<circle cx="396" cy="735" r="1.0" fill="#D4C5A8" opacity="0.2"/>
<circle cx="177" cy="1494" r="1.2" fill="#D4C5A8" opacity="0.1"/>
<circle cx="1550" cy="161" r="1.0" fill="#D4C5A8" opacity="0.2"/>
<circle cx="2364" cy="393" r="0.6" fill="#D4C5A8" opacity="0.1"/>
<circle cx="933" cy="1583" r="1.0" fill="#D4C5A8" opacity="0.1"/>
<circle cx="953" cy="206" r="1.2" fill="#D4C5A8" opacity="0.2"/>
<circle cx="1857" cy="1301" r="1.0" fill="#D4C5A8" opacity="0.15"/>
<circle cx="1516" cy="727" r="0.8" fill="#D4C5A8" opacity="0.2"/>
<circle cx="292" cy="1247" r="0.8" fill="#D4C5A8" opacity="0.15"/>
<circle cx="669" cy="946" r="1.2" fill="#D4C5A8" opacity="0.2"/>
<circle cx="2281" cy="449" r="1.0" fill="#D4C5A8" opacity="0.1"/>
<circle cx="938" cy="65" r="1.0" fill="#D4C5A8" opacity="0.25"/>
<circle cx="1096" cy="135" r="0.8" fill="#D4C5A8" opacity="0.2"/>
<circle cx="870" cy="1342" r="1.2" fill="#D4C5A8" opacity="0.25"/>
<circle cx="1879" cy="292" r="1.0" fill="#D4C5A8" opacity="0.15"/>
<circle cx="1010" cy="1525" r="1.0" fill="#D4C5A8" opacity="0.25"/>
<circle cx="2390" cy="817" r="1.0" fill="#D4C5A8" opacity="0.15"/>
<circle cx="566" cy="1043" r="1.2" fill="#D4C5A8" opacity="0.1"/>
<circle cx="192" cy="224" r="0.8" fill="#D4C5A8" opacity="0.15"/>
<circle cx="1729" cy="1221" r="0.6" fill="#D4C5A8" opacity="0.25"/>
<circle cx="1563" cy="1220" r="1.2" fill="#D4C5A8" opacity="0.2"/>
<circle cx="2266" cy="23" r="0.6" fill="#D4C5A8" opacity="0.2"/>
<circle cx="1393" cy="228" r="1.0" fill="#D4C5A8" opacity="0.25"/>
<circle cx="647" cy="929" r="0.6" fill="#D4C5A8" opacity="0.2"/>
<circle cx="2050" cy="1560" r="0.8" fill="#D4C5A8" opacity="0.1"/>
<circle cx="1222" cy="1308" r="0.8" fill="#D4C5A8" opacity="0.15"/>
<circle cx="1531" cy="1561" r="0.8" fill="#D4C5A8" opacity="0.1"/>
<circle cx="1327" cy="1000" r="0.6" fill="#D4C5A8" opacity="0.1"/>
<circle cx="1486" cy="629" r="0.8" fill="#D4C5A8" opacity="0.1"/>
<circle cx="986" cy="1161" r="0.6" fill="#D4C5A8" opacity="0.1"/>
<circle cx="1990" cy="141" r="0.8" fill="#D4C5A8" opacity="0.15"/>
<circle cx="1946" cy="1125" r="0.8" fill="#D4C5A8" opacity="0.2"/>
<circle cx="2161" cy="1242" r="1.2" fill="#D4C5A8" opacity="0.15"/>
<circle cx="2208" cy="1546" r="0.8" fill="#D4C5A8" opacity="0.2"/>
<circle cx="1634" cy="1375" r="1.0" fill="#D4C5A8" opacity="0.25"/>
<circle cx="2119" cy="924" r="0.6" fill="#D4C5A8" opacity="0.15"/>
<circle cx="920" cy="131" r="1.0" fill="#D4C5A8" opacity="0.1"/>
<circle cx="2268" cy="471" r="0.8" fill="#D4C5A8" opacity="0.1"/>
<circle cx="290" cy="1449" r="0.6" fill="#D4C5A8" opacity="0.15"/>
<circle cx="276" cy="64" r="1.0" fill="#D4C5A8" opacity="0.1"/>
<circle cx="2105" cy="487" r="1.0" fill="#D4C5A8" opacity="0.25"/>
<circle cx="877" cy="1104" r="0.8" fill="#D4C5A8" opacity="0.25"/>
<circle cx="995" cy="968" r="1.2" fill="#D4C5A8" opacity="0.15"/>
<circle cx="386" cy="198" r="1.2" fill="#D4C5A8" opacity="0.2"/>
<circle cx="1734" cy="841" r="1.2" fill="#D4C5A8" opacity="0.1"/>
<circle cx="403" cy="124" r="1.2" fill="#D4C5A8" opacity="0.2"/>
<circle cx="447" cy="509" r="0.8" fill="#D4C5A8" opacity="0.15"/>
<circle cx="2196" cy="918" r="0.8" fill="#D4C5A8" opacity="0.25"/>
<circle cx="751" cy="570" r="1.2" fill="#D4C5A8" opacity="0.15"/>
<circle cx="308" cy="907" r="0.6" fill="#D4C5A8" opacity="0.1"/>
<circle cx="2214" cy="30" r="0.6" fill="#D4C5A8" opacity="0.15"/>
<circle cx="681" cy="832" r="1.2" fill="#D4C5A8" opacity="0.25"/>
<circle cx="875" cy="821" r="0.6" fill="#D4C5A8" opacity="0.15"/>
<circle cx="1552" cy="4" r="1.2" fill="#D4C5A8" opacity="0.2"/>
<circle cx="1863" cy="584" r="1.2" fill="#D4C5A8" opacity="0.25"/>
<circle cx="634" cy="388" r="1.0" fill="#D4C5A8" opacity="0.15"/>
<circle cx="239" cy="1186" r="0.6" fill="#D4C5A8" opacity="0.2"/>
<circle cx="234" cy="102" r="1.2" fill="#D4C5A8" opacity="0.15"/>
<circle cx="232" cy="1040" r="0.6" fill="#D4C5A8" opacity="0.15"/>
<circle cx="280" cy="1218" r="0.6" fill="#D4C5A8" opacity="0.15"/>
<circle cx="1653" cy="245" r="0.8" fill="#D4C5A8" opacity="0.1"/>
<circle cx="335" cy="858" r="1.0" fill="#D4C5A8" opacity="0.2"/>
<circle cx="836" cy="1371" r="1.0" fill="#D4C5A8" opacity="0.15"/>
<circle cx="1087" cy="810" r="0.8" fill="#D4C5A8" opacity="0.2"/>
<circle cx="1872" cy="647" r="0.6" fill="#D4C5A8" opacity="0.1"/>
<circle cx="1877" cy="1272" r="0.6" fill="#D4C5A8" opacity="0.1"/>
<circle cx="2202" cy="436" r="1.0" fill="#D4C5A8" opacity="0.15"/>
<circle cx="1429" cy="140" r="0.8" fill="#D4C5A8" opacity="0.2"/>
<circle cx="1167" cy="323" r="1.2" fill="#D4C5A8" opacity="0.2"/>
<circle cx="2166" cy="16" r="1.0" fill="#D4C5A8" opacity="0.1"/>
<circle cx="550" cy="541" r="0.6" fill="#D4C5A8" opacity="0.1"/>
<circle cx="2266" cy="318" r="1.0" fill="#D4C5A8" opacity="0.2"/>
<circle cx="862" cy="1469" r="1.0" fill="#D4C5A8" opacity="0.15"/>
<circle cx="1081" cy="1035" r="1.2" fill="#D4C5A8" opacity="0.2"/>
<circle cx="208" cy="189" r="1.2" fill="#D4C5A8" opacity="0.2"/>
<circle cx="180" cy="7" r="1.0" fill="#D4C5A8" opacity="0.15"/>
<circle cx="1072" cy="330" r="1.2" fill="#D4C5A8" opacity="0.25"/>
<circle cx="2297" cy="19" r="0.6" fill="#D4C5A8" opacity="0.1"/>
<circle cx="610" cy="1117" r="0.6" fill="#D4C5A8" opacity="0.2"/>
<circle cx="2385" cy="1131" r="0.8" fill="#D4C5A8" opacity="0.25"/>
<circle cx="522" cy="85" r="1.0" fill="#D4C5A8" opacity="0.2"/>
<circle cx="163" cy="732" r="0.8" fill="#D4C5A8" opacity="0.15"/>
<circle cx="421" cy="724" r="1.2" fill="#D4C5A8" opacity="0.15"/>
<circle cx="969" cy="332" r="0.8" fill="#D4C5A8" opacity="0.25"/>
<circle cx="101" cy="367" r="1.0" fill="#D4C5A8" opacity="0.25"/>
<circle cx="1016" cy="546" r="0.8" fill="#D4C5A8" opacity="0.1"/>
<circle cx="1566" cy="79" r="1.2" fill="#D4C5A8" opacity="0.15"/>
<circle cx="817" cy="942" r="1.0" fill="#D4C5A8" opacity="0.2"/>
<circle cx="932" cy="456" r="0.6" fill="#D4C5A8" opacity="0.15"/>
<circle cx="1632" cy="672" r="1.0" fill="#D4C5A8" opacity="0.1"/>
<circle cx="1143" cy="719" r="1.2" fill="#D4C5A8" opacity="0.2"/>
<circle cx="113" cy="236" r="1.0" fill="#D4C5A8" opacity="0.15"/>
<circle cx="2378" cy="543" r="0.6" fill="#D4C5A8" opacity="0.1"/>
<circle cx="1779" cy="707" r="1.0" fill="#D4C5A8" opacity="0.25"/>
<circle cx="2094" cy="236" r="1.2" fill="#D4C5A8" opacity="0.15"/>
<circle cx="1043" cy="90" r="1.2" fill="#D4C5A8" opacity="0.1"/>
<circle cx="2129" cy="1102" r="0.8" fill="#D4C5A8" opacity="0.2"/>
<circle cx="1766" cy="143" r="1.0" fill="#D4C5A8" opacity="0.2"/>
<circle cx="510" cy="1474" r="1.0" fill="#D4C5A8" opacity="0.2"/>
<circle cx="1672" cy="668" r="1.2" fill="#D4C5A8" opacity="0.2"/>
<circle cx="2270" cy="260" r="0.8" fill="#D4C5A8" opacity="0.25"/>
<circle cx="1552" cy="1387" r="0.8" fill="#D4C5A8" opacity="0.2"/>
<circle cx="1663" cy="1122" r="0.6" fill="#D4C5A8" opacity="0.2"/>
<circle cx="1175" cy="430" r="1.2" fill="#D4C5A8" opacity="0.2"/>
<circle cx="1904" cy="904" r="1.2" fill="#D4C5A8" opacity="0.15"/>
<circle cx="2093" cy="969" r="0.8" fill="#D4C5A8" opacity="0.1"/>
<circle cx="1162" cy="1055" r="1.0" fill="#D4C5A8" opacity="0.1"/>
<circle cx="962" cy="1377" r="1.0" fill="#D4C5A8" opacity="0.15"/>
<circle cx="815" cy="301" r="0.6" fill="#D4C5A8" opacity="0.1"/>
<circle cx="1002" cy="973" r="0.6" fill="#D4C5A8" opacity="0.25"/>
<circle cx="1697" cy="1289" r="0.8" fill="#D4C5A8" opacity="0.25"/>
<circle cx="2024" cy="818" r="0.8" fill="#D4C5A8" opacity="0.15"/>
<circle cx="22" cy="1537" r="0.6" fill="#D4C5A8" opacity="0.25"/>
<circle cx="896" cy="360" r="1.2" fill="#D4C5A8" opacity="0.1"/>
<circle cx="2283" cy="510" r="0.6" fill="#D4C5A8" opacity="0.25"/>
<circle cx="546" cy="951" r="1.0" fill="#D4C5A8" opacity="0.25"/>
<circle cx="2067" cy="873" r="1.2" fill="#D4C5A8" opacity="0.15"/>
<circle cx="1944" cy="921" r="1.0" fill="#D4C5A8" opacity="0.15"/>
<circle cx="1135" cy="1568" r="1.2" fill="#D4C5A8" opacity="0.15"/>
<circle cx="1124" cy="900" r="0.6" fill="#D4C5A8" opacity="0.2"/>
<circle cx="960" cy="556" r="1.0" fill="#D4C5A8" opacity="0.2"/>
<circle cx="2212" cy="165" r="0.8" fill="#D4C5A8" opacity="0.15"/>
<circle cx="947" cy="784" r="0.8" fill="#D4C5A8" opacity="0.15"/>
<circle cx="263" cy="849" r="1.2" fill="#D4C5A8" opacity="0.2"/>
<circle cx="2222" cy="954" r="1.2" fill="#D4C5A8" opacity="0.1"/>
<circle cx="847" cy="860" r="1.2" fill="#D4C5A8" opacity="0.1"/>
<circle cx="2358" cy="779" r="1.2" fill="#D4C5A8" opacity="0.1"/>
<circle cx="1440" cy="611" r="1.2" fill="#D4C5A8" opacity="0.25"/>
<circle cx="2204" cy="1530" r="0.8" fill="#D4C5A8" opacity="0.25"/>
<circle cx="898" cy="558" r="1.2" fill="#D4C5A8" opacity="0.25"/>
<circle cx="118" cy="796" r="1.0" fill="#D4C5A8" opacity="0.25"/>
<circle cx="676" cy="957" r="0.8" fill="#D4C5A8" opacity="0.1"/>
<circle cx="1613" cy="1212" r="0.6" fill="#D4C5A8" opacity="0.1"/>
<circle cx="1755" cy="277" r="1.2" fill="#D4C5A8" opacity="0.15"/>
<circle cx="205" cy="532" r="1.2" fill="#D4C5A8" opacity="0.2"/>
<circle cx="866" cy="931" r="1.0" fill="#D4C5A8" opacity="0.2"/>
<circle cx="1552" cy="569" r="1.2" fill="#D4C5A8" opacity="0.2"/>
<circle cx="335" cy="963" r="0.6" fill="#D4C5A8" opacity="0.1"/>
<circle cx="1433" cy="459" r="0.6" fill="#D4C5A8" opacity="0.1"/>
<circle cx="127" cy="506" r="0.8" fill="#D4C5A8" opacity="0.1"/>
<circle cx="624" cy="488" r="0.8" fill="#D4C5A8" opacity="0.25"/>
<circle cx="468" cy="1155" r="0.8" fill="#D4C5A8" opacity="0.25"/>
<circle cx="1049" cy="1570" r="1.0" fill="#D4C5A8" opacity="0.15"/>
<circle cx="469" cy="1592" r="0.8" fill="#D4C5A8" opacity="0.2"/>
<circle cx="442" cy="1185" r="0.6" fill="#D4C5A8" opacity="0.2"/>
<circle cx="2358" cy="1387" r="1.2" fill="#D4C5A8" opacity="0.25"/>
<circle cx="812" cy="155" r="0.8" fill="#D4C5A8" opacity="0.1"/>
<circle cx="1235" cy="1401" r="0.6" fill="#D4C5A8" opacity="0.1"/>
<circle cx="1422" cy="1091" r="1.2" fill="#D4C5A8" opacity="0.2"/>
<circle cx="282" cy="1036" r="1.0" fill="#D4C5A8" opacity="0.1"/>
<circle cx="1720" cy="1003" r="0.6" fill="#D4C5A8" opacity="0.25"/>
<circle cx="1483" cy="1301" r="1.2" fill="#D4C5A8" opacity="0.15"/>
<circle cx="1783" cy="360" r="1.0" fill="#D4C5A8" opacity="0.25"/>
<circle cx="1904" cy="892" r="1.0" fill="#D4C5A8" opacity="0.2"/>
<circle cx="1005" cy="177" r="1.0" fill="#D4C5A8" opacity="0.25"/>
<circle cx="998" cy="1536" r="1.2" fill="#D4C5A8" opacity="0.25"/>
<circle cx="1377" cy="58" r="1.2" fill="#D4C5A8" opacity="0.2"/>
<circle cx="744" cy="998" r="0.8" fill="#D4C5A8" opacity="0.2"/>
<circle cx="1058" cy="697" r="1.0" fill="#D4C5A8" opacity="0.2"/>
<circle cx="2276" cy="20" r="0.8" fill="#D4C5A8" opacity="0.1"/>
<circle cx="988" cy="1474" r="1.2" fill="#D4C5A8" opacity="0.25"/>
<circle cx="2274" cy="1552" r="0.8" fill="#D4C5A8" opacity="0.25"/>
<circle cx="2010" cy="917" r="0.6" fill="#D4C5A8" opacity="0.1"/>
<circle cx="1205" cy="453" r="1.2" fill="#D4C5A8" opacity="0.15"/>
<circle cx="1254" cy="1359" r="1.0" fill="#D4C5A8" opacity="0.25"/>
<circle cx="2267" cy="1087" r="1.0" fill="#D4C5A8" opacity="0.25"/>
<circle cx="2254" cy="677" r="1.0" fill="#D4C5A8" opacity="0.25"/>
<circle cx="1109" cy="627" r="1.0" fill="#D4C5A8" opacity="0.15"/>
<circle cx="494" cy="1477" r="0.8" fill="#D4C5A8" opacity="0.2"/>
<circle cx="489" cy="1521" r="0.8" fill="#D4C5A8" opacity="0.15"/>
<circle cx="886" cy="1512" r="1.2" fill="#D4C5A8" opacity="0.2"/>
<circle cx="2148" cy="1222" r="1.0" fill="#D4C5A8" opacity="0.1"/>
<circle cx="795" cy="606" r="0.8" fill="#D4C5A8" opacity="0.2"/>
<circle cx="734" cy="619" r="0.6" fill="#D4C5A8" opacity="0.15"/>
<circle cx="1123" cy="93" r="0.6" fill="#D4C5A8" opacity="0.2"/>
<circle cx="517" cy="1306" r="1.2" fill="#D4C5A8" opacity="0.1"/>
<circle cx="50" cy="1175" r="1.0" fill="#D4C5A8" opacity="0.25"/>
<circle cx="1960" cy="902" r="1.0" fill="#D4C5A8" opacity="0.15"/>
<circle cx="210" cy="517" r="1.2" fill="#D4C5A8" opacity="0.1"/>
<circle cx="267" cy="820" r="1.2" fill="#D4C5A8" opacity="0.1"/>
<circle cx="2363" cy="1289" r="0.6" fill="#D4C5A8" opacity="0.15"/>
<circle cx="611" cy="1152" r="1.0" fill="#D4C5A8" opacity="0.1"/>
<circle cx="1016" cy="242" r="1.2" fill="#D4C5A8" opacity="0.15"/>
<circle cx="2140" cy="779" r="1.2" fill="#D4C5A8" opacity="0.25"/>
<circle cx="1217" cy="1205" r="1.2" fill="#D4C5A8" opacity="0.2"/>
<circle cx="2329" cy="1271" r="0.6" fill="#D4C5A8" opacity="0.1"/>
<circle cx="851" cy="1281" r="0.8" fill="#D4C5A8" opacity="0.2"/>
<circle cx="332" cy="321" r="0.8" fill="#D4C5A8" opacity="0.15"/>
<circle cx="2260" cy="153" r="0.8" fill="#D4C5A8" opacity="0.1"/>
<circle cx="1673" cy="922" r="1.2" fill="#D4C5A8" opacity="0.2"/>
<circle cx="133" cy="474" r="1.0" fill="#D4C5A8" opacity="0.2"/>
<circle cx="1859" cy="145" r="0.8" fill="#D4C5A8" opacity="0.2"/>
<circle cx="810" cy="870" r="0.6" fill="#D4C5A8" opacity="0.15"/>
<circle cx="610" cy="544" r="0.8" fill="#D4C5A8" opacity="0.1"/>
<circle cx="244" cy="339" r="1.0" fill="#D4C5A8" opacity="0.2"/>
<circle cx="1798" cy="254" r="1.2" fill="#D4C5A8" opacity="0.2"/>
<circle cx="1648" cy="557" r="1.2" fill="#D4C5A8" opacity="0.25"/>
<circle cx="329" cy="1224" r="0.6" fill="#D4C5A8" opacity="0.25"/>
<circle cx="1320" cy="1236" r="1.0" fill="#D4C5A8" opacity="0.1"/>
<circle cx="374" cy="468" r="0.6" fill="#D4C5A8" opacity="0.2"/>
<circle cx="2360" cy="82" r="0.8" fill="#D4C5A8" opacity="0.25"/>
<circle cx="2125" cy="1334" r="1.2" fill="#D4C5A8" opacity="0.2"/>
<circle cx="743" cy="1198" r="1.2" fill="#D4C5A8" opacity="0.25"/>
<circle cx="373" cy="962" r="1.0" fill="#D4C5A8" opacity="0.25"/>
<circle cx="1365" cy="657" r="0.6" fill="#D4C5A8" opacity="0.15"/>
<circle cx="1350" cy="843" r="1.2" fill="#D4C5A8" opacity="0.2"/>
<circle cx="1640" cy="1557" r="0.6" fill="#D4C5A8" opacity="0.25"/>
<circle cx="360" cy="644" r="1.0" fill="#D4C5A8" opacity="0.2"/>
<circle cx="474" cy="1582" r="1.2" fill="#D4C5A8" opacity="0.1"/>
<circle cx="2222" cy="946" r="1.2" fill="#D4C5A8" opacity="0.1"/>
<circle cx="768" cy="1061" r="1.0" fill="#D4C5A8" opacity="0.25"/>
<circle cx="1810" cy="1556" r="0.6" fill="#D4C5A8" opacity="0.15"/>
<circle cx="1093" cy="1124" r="0.8" fill="#D4C5A8" opacity="0.2"/>
<circle cx="1794" cy="1430" r="1.2" fill="#D4C5A8" opacity="0.1"/>
<circle cx="118" cy="1290" r="0.8" fill="#D4C5A8" opacity="0.15"/>
<circle cx="1272" cy="1128" r="0.6" fill="#D4C5A8" opacity="0.25"/>
<circle cx="381" cy="460" r="0.6" fill="#D4C5A8" opacity="0.25"/>
<circle cx="481" cy="1326" r="0.8" fill="#D4C5A8" opacity="0.25"/>
<circle cx="1195" cy="1042" r="1.0" fill="#D4C5A8" opacity="0.25"/>
<circle cx="1976" cy="967" r="0.8" fill="#D4C5A8" opacity="0.25"/>
<circle cx="2257" cy="296" r="1.2" fill="#D4C5A8" opacity="0.15"/>
<circle cx="2081" cy="1528" r="0.8" fill="#D4C5A8" opacity="0.1"/>
<circle cx="1131" cy="1582" r="1.2" fill="#D4C5A8" opacity="0.2"/>
<circle cx="2079" cy="547" r="0.6" fill="#D4C5A8" opacity="0.2"/>
<circle cx="1222" cy="1202" r="1.2" fill="#D4C5A8" opacity="0.15"/>
<circle cx="1829" cy="1103" r="1.2" fill="#D4C5A8" opacity="0.2"/>
<circle cx="1361" cy="1130" r="1.2" fill="#D4C5A8" opacity="0.25"/>
<circle cx="1318" cy="386" r="0.8" fill="#D4C5A8" opacity="0.25"/>
<circle cx="956" cy="1588" r="1.2" fill="#D4C5A8" opacity="0.1"/>
<circle cx="1303" cy="1525" r="1.2" fill="#D4C5A8" opacity="0.25"/>
<circle cx="1581" cy="1359" r="0.8" fill="#D4C5A8" opacity="0.25"/>
<circle cx="151" cy="258" r="1.0" fill="#D4C5A8" opacity="0.1"/>
<circle cx="1803" cy="204" r="1.2" fill="#D4C5A8" opacity="0.1"/>
<circle cx="590" cy="839" r="0.8" fill="#D4C5A8" opacity="0.1"/>
<circle cx="1923" cy="1600" r="1.0" fill="#D4C5A8" opacity="0.2"/>
<circle cx="1628" cy="1330" r="0.6" fill="#D4C5A8" opacity="0.2"/>
<circle cx="2185" cy="778" r="1.0" fill="#D4C5A8" opacity="0.25"/>
<circle cx="2216" cy="73" r="0.6" fill="#D4C5A8" opacity="0.15"/>
<circle cx="1177" cy="465" r="0.6" fill="#D4C5A8" opacity="0.25"/>
<circle cx="403" cy="1557" r="0.6" fill="#D4C5A8" opacity="0.25"/>
<circle cx="681" cy="1421" r="1.0" fill="#D4C5A8" opacity="0.1"/>
<circle cx="188" cy="664" r="0.6" fill="#D4C5A8" opacity="0.2"/>
<circle cx="1468" cy="767" r="1.2" fill="#D4C5A8" opacity="0.15"/>
<circle cx="1000" cy="1087" r="1.2" fill="#D4C5A8" opacity="0.15"/>
<circle cx="696" cy="358" r="0.6" fill="#D4C5A8" opacity="0.25"/>
<circle cx="986" cy="1019" r="0.8" fill="#D4C5A8" opacity="0.15"/>
<circle cx="1888" cy="1306" r="1.0" fill="#D4C5A8" opacity="0.25"/>
<circle cx="1045" cy="1365" r="0.6" fill="#D4C5A8" opacity="0.25"/>
<circle cx="1178" cy="1387" r="0.8" fill="#D4C5A8" opacity="0.1"/>
<circle cx="1809" cy="707" r="1.0" fill="#D4C5A8" opacity="0.25"/>
<circle cx="1024" cy="935" r="1.0" fill="#D4C5A8" opacity="0.15"/>
<circle cx="1575" cy="989" r="0.6" fill="#D4C5A8" opacity="0.15"/>
<circle cx="1562" cy="1171" r="1.0" fill="#D4C5A8" opacity="0.2"/>
<circle cx="1209" cy="44" r="1.2" fill="#D4C5A8" opacity="0.2"/>
<circle cx="33" cy="1159" r="0.6" fill="#D4C5A8" opacity="0.25"/>
<circle cx="1172" cy="1588" r="0.8" fill="#D4C5A8" opacity="0.2"/>
<circle cx="897" cy="1303" r="0.8" fill="#D4C5A8" opacity="0.2"/>
<circle cx="560" cy="1286" r="0.6" fill="#D4C5A8" opacity="0.1"/>
<circle cx="1265" cy="902" r="0.6" fill="#D4C5A8" opacity="0.2"/>
<circle cx="538" cy="184" r="1.0" fill="#D4C5A8" opacity="0.2"/>
<circle cx="1701" cy="359" r="0.8" fill="#D4C5A8" opacity="0.15"/>
<circle cx="2209" cy="749" r="1.0" fill="#D4C5A8" opacity="0.15"/>
<circle cx="1052" cy="986" r="1.0" fill="#D4C5A8" opacity="0.2"/>
<circle cx="471" cy="959" r="0.6" fill="#D4C5A8" opacity="0.15"/>
<circle cx="924" cy="1385" r="1.2" fill="#D4C5A8" opacity="0.2"/>
<circle cx="369" cy="808" r="0.6" fill="#D4C5A8" opacity="0.2"/>
<circle cx="2197" cy="253" r="1.2" fill="#D4C5A8" opacity="0.2"/>
<circle cx="1073" cy="1197" r="1.2" fill="#D4C5A8" opacity="0.2"/>
<circle cx="443" cy="1382" r="0.8" fill="#D4C5A8" opacity="0.25"/>
<circle cx="102" cy="1268" r="1.0" fill="#D4C5A8" opacity="0.15"/>
<circle cx="258" cy="1301" r="1.2" fill="#D4C5A8" opacity="0.2"/>
<circle cx="1672" cy="238" r="0.8" fill="#D4C5A8" opacity="0.1"/>
<circle cx="152" cy="623" r="1.2" fill="#D4C5A8" opacity="0.1"/>
<circle cx="398" cy="480" r="0.8" fill="#D4C5A8" opacity="0.25"/>
<circle cx="1858" cy="759" r="1.2" fill="#D4C5A8" opacity="0.15"/>
<circle cx="1699" cy="1341" r="0.6" fill="#D4C5A8" opacity="0.25"/>
<circle cx="1671" cy="572" r="0.6" fill="#D4C5A8" opacity="0.2"/>
<circle cx="889" cy="908" r="1.2" fill="#D4C5A8" opacity="0.15"/>
<circle cx="1485" cy="203" r="1.0" fill="#D4C5A8" opacity="0.2"/>
<circle cx="248" cy="815" r="1.0" fill="#D4C5A8" opacity="0.15"/>
<circle cx="500" cy="931" r="0.6" fill="#D4C5A8" opacity="0.15"/>
<circle cx="87" cy="103" r="1.0" fill="#D4C5A8" opacity="0.15"/>
<circle cx="515" cy="1156" r="0.8" fill="#D4C5A8" opacity="0.1"/>
<circle cx="2270" cy="424" r="0.8" fill="#D4C5A8" opacity="0.15"/>
<circle cx="1345" cy="1585" r="0.8" fill="#D4C5A8" opacity="0.1"/>
<circle cx="1135" cy="296" r="0.8" fill="#D4C5A8" opacity="0.2"/>
<circle cx="714" cy="225" r="0.6" fill="#D4C5A8" opacity="0.15"/>
<circle cx="60" cy="733" r="0.8" fill="#D4C5A8" opacity="0.2"/>
<circle cx="64" cy="356" r="1.0" fill="#D4C5A8" opacity="0.1"/>
<circle cx="519" cy="1519" r="1.2" fill="#D4C5A8" opacity="0.1"/>
<circle cx="260" cy="975" r="1.2" fill="#D4C5A8" opacity="0.2"/>
<circle cx="2102" cy="1215" r="0.6" fill="#D4C5A8" opacity="0.25"/>
<circle cx="2063" cy="453" r="0.6" fill="#D4C5A8" opacity="0.2"/>
<circle cx="1876" cy="1317" r="0.6" fill="#D4C5A8" opacity="0.1"/>
<circle cx="1961" cy="822" r="1.2" fill="#D4C5A8" opacity="0.1"/>
<circle cx="2008" cy="1458" r="1.2" fill="#D4C5A8" opacity="0.1"/>
<circle cx="330" cy="659" r="0.8" fill="#D4C5A8" opacity="0.1"/>
<circle cx="516" cy="563" r="1.0" fill="#D4C5A8" opacity="0.25"/>
<circle cx="2173" cy="603" r="1.2" fill="#D4C5A8" opacity="0.25"/>
<circle cx="406" cy="1437" r="0.6" fill="#D4C5A8" opacity="0.15"/>
<circle cx="1761" cy="924" r="0.8" fill="#D4C5A8" opacity="0.25"/>
<circle cx="1388" cy="928" r="1.2" fill="#D4C5A8" opacity="0.25"/>
<circle cx="389" cy="640" r="1.2" fill="#D4C5A8" opacity="0.2"/>
<circle cx="1044" cy="766" r="0.8" fill="#D4C5A8" opacity="0.25"/>
<circle cx="274" cy="186" r="0.6" fill="#D4C5A8" opacity="0.1"/>
<circle cx="1768" cy="197" r="1.0" fill="#D4C5A8" opacity="0.15"/>
<circle cx="2278" cy="122" r="1.0" fill="#D4C5A8" opacity="0.1"/>
<circle cx="1682" cy="724" r="1.2" fill="#D4C5A8" opacity="0.1"/>
<circle cx="1178" cy="1229" r="1.0" fill="#D4C5A8" opacity="0.2"/>
<circle cx="424" cy="1183" r="0.8" fill="#D4C5A8" opacity="0.15"/>
<circle cx="1975" cy="459" r="0.6" fill="#D4C5A8" opacity="0.2"/>
<circle cx="2278" cy="752" r="0.6" fill="#D4C5A8" opacity="0.2"/>
<circle cx="2351" cy="463" r="1.2" fill="#D4C5A8" opacity="0.1"/>
<circle cx="1095" cy="59" r="0.8" fill="#D4C5A8" opacity="0.2"/>
<circle cx="1265" cy="695" r="1.0" fill="#D4C5A8" opacity="0.1"/>
<circle cx="743" cy="293" r="1.2" fill="#D4C5A8" opacity="0.1"/>
<circle cx="581" cy="1517" r="0.6" fill="#D4C5A8" opacity="0.1"/>
<circle cx="2172" cy="440" r="1.2" fill="#D4C5A8" opacity="0.25"/>
<circle cx="1858" cy="698" r="0.8" fill="#D4C5A8" opacity="0.2"/>
<circle cx="1276" cy="1477" r="1.0" fill="#D4C5A8" opacity="0.1"/>
<circle cx="215" cy="318" r="0.8" fill="#D4C5A8" opacity="0.1"/>
<circle cx="334" cy="557" r="1.2" fill="#D4C5A8" opacity="0.25"/>
<circle cx="1989" cy="1243" r="1.2" fill="#D4C5A8" opacity="0.25"/>
<circle cx="1118" cy="441" r="0.6" fill="#D4C5A8" opacity="0.2"/>
<circle cx="1760" cy="227" r="1.0" fill="#D4C5A8" opacity="0.25"/>
<circle cx="2158" cy="1366" r="1.0" fill="#D4C5A8" opacity="0.1"/>
<circle cx="903" cy="809" r="0.6" fill="#D4C5A8" opacity="0.1"/>
<circle cx="837" cy="617" r="0.8" fill="#D4C5A8" opacity="0.15"/>
<circle cx="1046" cy="592" r="1.0" fill="#D4C5A8" opacity="0.1"/>
<circle cx="31" cy="1018" r="1.2" fill="#D4C5A8" opacity="0.15"/>
<circle cx="529" cy="778" r="0.8" fill="#D4C5A8" opacity="0.2"/>
<circle cx="295" cy="813" r="0.6" fill="#D4C5A8" opacity="0.25"/>
<circle cx="76" cy="941" r="0.6" fill="#D4C5A8" opacity="0.2"/>
<circle cx="2358" cy="879" r="1.2" fill="#D4C5A8" opacity="0.25"/>
<circle cx="1185" cy="235" r="1.2" fill="#D4C5A8" opacity="0.1"/>
<circle cx="1330" cy="351" r="1.2" fill="#D4C5A8" opacity="0.2"/>
<circle cx="360" cy="894" r="0.6" fill="#D4C5A8" opacity="0.15"/>
<circle cx="1784" cy="1206" r="1.2" fill="#D4C5A8" opacity="0.1"/>
<circle cx="1621" cy="635" r="1.0" fill="#D4C5A8" opacity="0.15"/>
<circle cx="1364" cy="1595" r="0.8" fill="#D4C5A8" opacity="0.1"/>
<circle cx="2090" cy="1296" r="0.6" fill="#D4C5A8" opacity="0.15"/>
<circle cx="1431" cy="719" r="0.8" fill="#D4C5A8" opacity="0.15"/>
<circle cx="421" cy="299" r="1.0" fill="#D4C5A8" opacity="0.15"/>
<circle cx="710" cy="1233" r="0.8" fill="#D4C5A8" opacity="0.1"/>
<circle cx="725" cy="1582" r="1.2" fill="#D4C5A8" opacity="0.25"/>
<circle cx="2309" cy="1556" r="1.2" fill="#D4C5A8" opacity="0.2"/>
<circle cx="1294" cy="309" r="1.2" fill="#D4C5A8" opacity="0.1"/>
<circle cx="1920" cy="905" r="1.0" fill="#D4C5A8" opacity="0.2"/>
<circle cx="230" cy="720" r="0.6" fill="#D4C5A8" opacity="0.2"/>
<circle cx="1891" cy="925" r="0.6" fill="#D4C5A8" opacity="0.1"/>
<circle cx="1510" cy="587" r="0.6" fill="#D4C5A8" opacity="0.1"/>
<circle cx="2076" cy="787" r="1.2" fill="#D4C5A8" opacity="0.1"/>
<circle cx="1842" cy="1170" r="0.8" fill="#D4C5A8" opacity="0.2"/>
<circle cx="1948" cy="1026" r="0.8" fill="#D4C5A8" opacity="0.1"/>
<circle cx="1845" cy="211" r="1.0" fill="#D4C5A8" opacity="0.1"/>
<circle cx="2066" cy="1323" r="0.8" fill="#D4C5A8" opacity="0.1"/>
<circle cx="1014" cy="1449" r="1.2" fill="#D4C5A8" opacity="0.25"/>
<circle cx="2146" cy="1070" r="0.8" fill="#D4C5A8" opacity="0.2"/>
<circle cx="1527" cy="579" r="1.2" fill="#D4C5A8" opacity="0.25"/>
<circle cx="1385" cy="1390" r="0.6" fill="#D4C5A8" opacity="0.2"/>
<circle cx="269" cy="675" r="0.6" fill="#D4C5A8" opacity="0.25"/>
<circle cx="1163" cy="516" r="0.8" fill="#D4C5A8" opacity="0.2"/>
<circle cx="333" cy="1193" r="0.8" fill="#D4C5A8" opacity="0.2"/>
<circle cx="1270" cy="1343" r="1.2" fill="#D4C5A8" opacity="0.15"/>
<circle cx="347" cy="634" r="1.2" fill="#D4C5A8" opacity="0.2"/>
<circle cx="523" cy="1372" r="0.6" fill="#D4C5A8" opacity="0.25"/>
<circle cx="2082" cy="741" r="0.6" fill="#D4C5A8" opacity="0.2"/>
<circle cx="1265" cy="369" r="0.8" fill="#D4C5A8" opacity="0.2"/>
<circle cx="1991" cy="393" r="0.8" fill="#D4C5A8" opacity="0.15"/>
<circle cx="634" cy="158" r="1.0" fill="#D4C5A8" opacity="0.1"/>
<circle cx="2079" cy="1578" r="0.6" fill="#D4C5A8" opacity="0.2"/>
<circle cx="536" cy="1223" r="1.2" fill="#D4C5A8" opacity="0.15"/>
<circle cx="664" cy="370" r="0.8" fill="#D4C5A8" opacity="0.25"/>
<circle cx="178" cy="841" r="1.0" fill="#D4C5A8" opacity="0.15"/>
<circle cx="1819" cy="1250" r="1.0" fill="#D4C5A8" opacity="0.25"/>
<circle cx="958" cy="1093" r="0.8" fill="#D4C5A8" opacity="0.2"/>
<circle cx="1921" cy="397" r="1.0" fill="#D4C5A8" opacity="0.25"/>
<circle cx="1891" cy="1575" r="1.0" fill="#D4C5A8" opacity="0.25"/>
<circle cx="2059" cy="1080" r="1.2" fill="#D4C5A8" opacity="0.15"/>
<circle cx="817" cy="1238" r="0.8" fill="#D4C5A8" opacity="0.2"/>
<circle cx="213" cy="1313" r="1.2" fill="#D4C5A8" opacity="0.2"/>
<circle cx="2271" cy="210" r="0.6" fill="#D4C5A8" opacity="0.2"/>
<circle cx="343" cy="1562" r="0.8" fill="#D4C5A8" opacity="0.2"/>
<circle cx="1840" cy="1051" r="0.8" fill="#D4C5A8" opacity="0.25"/>
<circle cx="375" cy="454" r="1.2" fill="#D4C5A8" opacity="0.2"/>
<circle cx="109" cy="849" r="0.6" fill="#D4C5A8" opacity="0.25"/>
<circle cx="2056" cy="765" r="0.8" fill="#D4C5A8" opacity="0.25"/>
<circle cx="334" cy="767" r="0.8" fill="#D4C5A8" opacity="0.1"/>
<circle cx="1305" cy="202" r="1.0" fill="#D4C5A8" opacity="0.15"/>
<circle cx="563" cy="78" r="1.0" fill="#D4C5A8" opacity="0.25"/>
<circle cx="568" cy="1554" r="1.2" fill="#D4C5A8" opacity="0.25"/>
<circle cx="21" cy="162" r="0.6" fill="#D4C5A8" opacity="0.2"/>
<circle cx="883" cy="306" r="1.2" fill="#D4C5A8" opacity="0.1"/>
<circle cx="1180" cy="486" r="1.0" fill="#D4C5A8" opacity="0.1"/>
<circle cx="195" cy="488" r="1.2" fill="#D4C5A8" opacity="0.25"/>
<circle cx="257" cy="227" r="1.2" fill="#D4C5A8" opacity="0.1"/>
<circle cx="2110" cy="1177" r="0.8" fill="#D4C5A8" opacity="0.15"/>
<circle cx="1193" cy="879" r="0.6" fill="#D4C5A8" opacity="0.2"/>
<circle cx="985" cy="1168" r="1.2" fill="#D4C5A8" opacity="0.15"/>
<circle cx="350" cy="1072" r="1.0" fill="#D4C5A8" opacity="0.1"/>
<circle cx="2154" cy="1114" r="0.6" fill="#D4C5A8" opacity="0.25"/>
<circle cx="1925" cy="89" r="1.2" fill="#D4C5A8" opacity="0.2"/>
<circle cx="1038" cy="1530" r="0.6" fill="#D4C5A8" opacity="0.2"/>
<circle cx="276" cy="706" r="0.8" fill="#D4C5A8" opacity="0.1"/>
<circle cx="2383" cy="1505" r="1.0" fill="#D4C5A8" opacity="0.15"/>
<circle cx="181" cy="721" r="1.0" fill="#D4C5A8" opacity="0.15"/>
<circle cx="1903" cy="1424" r="1.2" fill="#D4C5A8" opacity="0.15"/>
<circle cx="552" cy="129" r="1.2" fill="#D4C5A8" opacity="0.1"/>
<circle cx="1201" cy="412" r="0.6" fill="#D4C5A8" opacity="0.15"/>
<circle cx="171" cy="646" r="1.0" fill="#D4C5A8" opacity="0.25"/>
<circle cx="2224" cy="969" r="1.0" fill="#D4C5A8" opacity="0.1"/>
<circle cx="782" cy="585" r="1.0" fill="#D4C5A8" opacity="0.1"/>
<circle cx="1359" cy="559" r="0.6" fill="#D4C5A8" opacity="0.2"/>
<circle cx="1789" cy="819" r="1.2" fill="#D4C5A8" opacity="0.25"/>
<circle cx="1388" cy="382" r="1.2" fill="#D4C5A8" opacity="0.25"/>
<circle cx="1504" cy="1063" r="1.0" fill="#D4C5A8" opacity="0.1"/>
<circle cx="1738" cy="161" r="1.2" fill="#D4C5A8" opacity="0.15"/>
<circle cx="2234" cy="601" r="1.0" fill="#D4C5A8" opacity="0.1"/>
<circle cx="327" cy="671" r="1.0" fill="#D4C5A8" opacity="0.2"/>
<circle cx="1826" cy="1234" r="1.2" fill="#D4C5A8" opacity="0.15"/>
<circle cx="1818" cy="719" r="1.2" fill="#D4C5A8" opacity="0.1"/>
<circle cx="1444" cy="1259" r="1.2" fill="#D4C5A8" opacity="0.2"/>
<circle cx="234" cy="153" r="1.2" fill="#D4C5A8" opacity="0.2"/>
<circle cx="2101" cy="1535" r="0.8" fill="#D4C5A8" opacity="0.1"/>
<circle cx="584" cy="1244" r="1.2" fill="#D4C5A8" opacity="0.1"/>
<circle cx="517" cy="137" r="0.8" fill="#D4C5A8" opacity="0.2"/>
<circle cx="1483" cy="784" r="0.6" fill="#D4C5A8" opacity="0.15"/>
<circle cx="1842" cy="759" r="1.0" fill="#D4C5A8" opacity="0.25"/>
<circle cx="314" cy="1175" r="0.8" fill="#D4C5A8" opacity="0.2"/>
<circle cx="1630" cy="643" r="1.0" fill="#D4C5A8" opacity="0.15"/>
<circle cx="464" cy="53" r="0.8" fill="#D4C5A8" opacity="0.25"/>
<circle cx="2120" cy="792" r="0.6" fill="#D4C5A8" opacity="0.2"/>
<circle cx="1066" cy="1441" r="1.2" fill="#D4C5A8" opacity="0.15"/>
<circle cx="1169" cy="1421" r="1.2" fill="#D4C5A8" opacity="0.15"/>
<circle cx="502" cy="277" r="0.6" fill="#D4C5A8" opacity="0.25"/>
<circle cx="707" cy="1460" r="1.2" fill="#D4C5A8" opacity="0.1"/>
<circle cx="1309" cy="1367" r="1.0" fill="#D4C5A8" opacity="0.1"/>
<circle cx="2252" cy="1110" r="1.0" fill="#D4C5A8" opacity="0.2"/>
<circle cx="645" cy="1457" r="0.8" fill="#D4C5A8" opacity="0.2"/>
<circle cx="2083" cy="459" r="0.6" fill="#D4C5A8" opacity="0.15"/>
<circle cx="568" cy="484" r="1.2" fill="#D4C5A8" opacity="0.1"/>
<circle cx="1478" cy="1134" r="1.0" fill="#D4C5A8" opacity="0.25"/>
<circle cx="2259" cy="265" r="0.6" fill="#D4C5A8" opacity="0.1"/>
<circle cx="1266" cy="815" r="1.2" fill="#D4C5A8" opacity="0.25"/>
<circle cx="1677" cy="1177" r="0.6" fill="#D4C5A8" opacity="0.15"/>
<circle cx="1298" cy="1315" r="0.6" fill="#D4C5A8" opacity="0.25"/>
<circle cx="1908" cy="1392" r="1.0" fill="#D4C5A8" opacity="0.15"/>
<circle cx="2258" cy="1310" r="0.8" fill="#D4C5A8" opacity="0.15"/>
<circle cx="1772" cy="1029" r="0.6" fill="#D4C5A8" opacity="0.1"/>
<circle cx="2122" cy="313" r="1.0" fill="#D4C5A8" opacity="0.15"/>
<circle cx="663" cy="660" r="0.8" fill="#D4C5A8" opacity="0.2"/>
<circle cx="2125" cy="581" r="0.6" fill="#D4C5A8" opacity="0.2"/>
<circle cx="804" cy="1300" r="1.0" fill="#D4C5A8" opacity="0.15"/>
<circle cx="1240" cy="1258" r="0.6" fill="#D4C5A8" opacity="0.15"/>
<circle cx="2378" cy="315" r="0.8" fill="#D4C5A8" opacity="0.2"/>
<circle cx="2308" cy="84" r="0.6" fill="#D4C5A8" opacity="0.1"/>
<circle cx="186" cy="1313" r="1.0" fill="#D4C5A8" opacity="0.15"/>
<circle cx="2343" cy="853" r="0.6" fill="#D4C5A8" opacity="0.25"/>
<circle cx="2234" cy="593" r="1.0" fill="#D4C5A8" opacity="0.25"/>
<circle cx="1003" cy="1402" r="1.2" fill="#D4C5A8" opacity="0.2"/>
<circle cx="1857" cy="149" r="0.6" fill="#D4C5A8" opacity="0.15"/>
<circle cx="1800" cy="851" r="1.2" fill="#D4C5A8" opacity="0.25"/>
<circle cx="835" cy="696" r="0.8" fill="#D4C5A8" opacity="0.2"/>
<circle cx="1307" cy="1503" r="1.0" fill="#D4C5A8" opacity="0.25"/>
<circle cx="535" cy="1557" r="1.0" fill="#D4C5A8" opacity="0.1"/>
<circle cx="1307" cy="495" r="1.2" fill="#D4C5A8" opacity="0.1"/>
<circle cx="1095" cy="920" r="0.8" fill="#D4C5A8" opacity="0.15"/>
<circle cx="396" cy="103" r="1.0" fill="#D4C5A8" opacity="0.25"/>
<circle cx="1712" cy="508" r="0.8" fill="#D4C5A8" opacity="0.2"/>
<circle cx="2366" cy="1476" r="1.0" fill="#D4C5A8" opacity="0.15"/>
<circle cx="652" cy="1020" r="1.2" fill="#D4C5A8" opacity="0.25"/>
<circle cx="1263" cy="1018" r="0.6" fill="#D4C5A8" opacity="0.1"/>

<rect x="64" y="64" width="2272" height="1472"
      fill="none" stroke="#2B2422" stroke-width="1.5" opacity="0.7"/>
<rect x="68" y="68" width="2264" height="1464"
      fill="none" stroke="#2B2422" stroke-width="0.5" opacity="0.5"/>

<g>
  <line x1="1170.0" y1="70" x2="1120.0" y2="70"
        stroke="#C49A3D" stroke-width="1.5"/>
  <line x1="1230.0" y1="70" x2="1280.0" y2="70"
        stroke="#C49A3D" stroke-width="1.5"/>
  <text x="1200.0" y="74" text-anchor="middle"
        font-family="Georgia, 'Times New Roman', serif"
        font-size="14" font-weight="700" letter-spacing="3"
        fill="#C49A3D">HERO</text>
</g>

<g transform="translate(1200.0 800.0) rotate(-18)" opacity="0.18">
  <rect x="-680.0" y="-122.39999999999999" width="1360.0" height="244.79999999999998"
        fill="none" stroke="#A03423" stroke-width="6" rx="6"/>
  <rect x="-670.0" y="-112.39999999999999"
        width="1340.0" height="224.79999999999998"
        fill="none" stroke="#A03423" stroke-width="3.0" rx="3"/>
  <text x="0" y="47.124" text-anchor="middle"
        font-family="Georgia, 'Times New Roman', serif"
        font-size="134.64000000000001" font-weight="900" letter-spacing="16.1568"
        fill="#A03423">PLACEHOLDER</text>
</g>

<text x="1200.0" y="792.0" text-anchor="middle"
      font-family="Georgia, 'Times New Roman', serif"
      font-size="140.8" font-weight="800" fill="#2B2422">Bakery Counter</text>
<text x="1200.0" y="911.6800000000001" text-anchor="middle"
      font-family="Georgia, 'Times New Roman', serif"
      font-size="45.056000000000004" font-style="italic"
      fill="#2B2422" opacity="0.7">Cakes · Cheesecakes · Cookies</text>

<g>
  <line x1="2318" y1="1546" x2="2368" y2="1546"
        stroke="#A03423" stroke-width="1.5"/>
  <text x="2368" y="1568" text-anchor="end"
        font-family="Georgia, 'Times New Roman', serif"
        font-size="18" font-weight="800" letter-spacing="2"
        fill="#A03423">KD</text>
</g>
</svg>
